<mxfile host="app.diagrams.net" modified="2020-07-29T02:25:56.698Z" agent="5.0 (Windows NT 10.0; Win64; x64) AppleWebKit/537.36 (KHTML, like Gecko) Chrome/84.0.4147.89 Safari/537.36" etag="73kv31yocIp9lo-3KZMI" version="13.5.4" type="github">
  <diagram id="PwJVHqZTUF8KdpS5hUyB" name="第 1 页">
    <mxGraphModel dx="4382" dy="3074" grid="1" gridSize="10" guides="1" tooltips="1" connect="1" arrows="1" fold="1" page="1" pageScale="1" pageWidth="827" pageHeight="1169" math="0" shadow="0">
      <root>
        <mxCell id="0" />
        <mxCell id="1" parent="0" />
        <mxCell id="vSH8UtmdNrjKOl-DguEc-3" style="edgeStyle=orthogonalEdgeStyle;rounded=0;orthogonalLoop=1;jettySize=auto;html=1;entryX=0.5;entryY=1;entryDx=0;entryDy=0;curved=1;" parent="1" source="vSH8UtmdNrjKOl-DguEc-1" target="vSH8UtmdNrjKOl-DguEc-2" edge="1">
          <mxGeometry relative="1" as="geometry" />
        </mxCell>
        <mxCell id="vSH8UtmdNrjKOl-DguEc-1" value="UI性能优化" style="ellipse;whiteSpace=wrap;html=1;aspect=fixed;fillColor=#f8cecc;strokeColor=#b85450;" parent="1" vertex="1">
          <mxGeometry x="350" y="320" width="80" height="80" as="geometry" />
        </mxCell>
        <mxCell id="vSH8UtmdNrjKOl-DguEc-6" style="edgeStyle=orthogonalEdgeStyle;curved=1;rounded=0;orthogonalLoop=1;jettySize=auto;html=1;exitX=1;exitY=0.5;exitDx=0;exitDy=0;entryX=0.5;entryY=1;entryDx=0;entryDy=0;" parent="1" source="vSH8UtmdNrjKOl-DguEc-2" target="vSH8UtmdNrjKOl-DguEc-4" edge="1">
          <mxGeometry relative="1" as="geometry" />
        </mxCell>
        <mxCell id="vSH8UtmdNrjKOl-DguEc-7" style="edgeStyle=orthogonalEdgeStyle;curved=1;rounded=0;orthogonalLoop=1;jettySize=auto;html=1;exitX=0;exitY=0.5;exitDx=0;exitDy=0;" parent="1" source="vSH8UtmdNrjKOl-DguEc-2" target="vSH8UtmdNrjKOl-DguEc-5" edge="1">
          <mxGeometry relative="1" as="geometry" />
        </mxCell>
        <mxCell id="vSH8UtmdNrjKOl-DguEc-2" value="内存" style="ellipse;whiteSpace=wrap;html=1;aspect=fixed;" parent="1" vertex="1">
          <mxGeometry x="140" y="220" width="60" height="60" as="geometry" />
        </mxCell>
        <mxCell id="vSH8UtmdNrjKOl-DguEc-16" value="" style="edgeStyle=orthogonalEdgeStyle;curved=1;rounded=0;orthogonalLoop=1;jettySize=auto;html=1;" parent="1" source="vSH8UtmdNrjKOl-DguEc-4" target="vSH8UtmdNrjKOl-DguEc-15" edge="1">
          <mxGeometry relative="1" as="geometry" />
        </mxCell>
        <mxCell id="vSH8UtmdNrjKOl-DguEc-4" value="&lt;font style=&quot;font-size: 11px&quot;&gt;mono内存&lt;/font&gt;" style="ellipse;whiteSpace=wrap;html=1;aspect=fixed;" parent="1" vertex="1">
          <mxGeometry x="260" y="155" width="60" height="60" as="geometry" />
        </mxCell>
        <mxCell id="vSH8UtmdNrjKOl-DguEc-11" style="edgeStyle=orthogonalEdgeStyle;curved=1;rounded=0;orthogonalLoop=1;jettySize=auto;html=1;exitX=0.5;exitY=0;exitDx=0;exitDy=0;entryX=0;entryY=0.5;entryDx=0;entryDy=0;" parent="1" source="vSH8UtmdNrjKOl-DguEc-5" target="vSH8UtmdNrjKOl-DguEc-10" edge="1">
          <mxGeometry relative="1" as="geometry">
            <mxPoint x="95" y="130" as="sourcePoint" />
          </mxGeometry>
        </mxCell>
        <mxCell id="vSH8UtmdNrjKOl-DguEc-14" style="edgeStyle=orthogonalEdgeStyle;curved=1;rounded=0;orthogonalLoop=1;jettySize=auto;html=1;exitX=0.5;exitY=0;exitDx=0;exitDy=0;entryX=1;entryY=0.5;entryDx=0;entryDy=0;" parent="1" source="vSH8UtmdNrjKOl-DguEc-5" target="vSH8UtmdNrjKOl-DguEc-9" edge="1">
          <mxGeometry relative="1" as="geometry" />
        </mxCell>
        <mxCell id="vSH8UtmdNrjKOl-DguEc-5" value="&lt;font style=&quot;font-size: 11px&quot;&gt;图集内存&lt;/font&gt;" style="ellipse;whiteSpace=wrap;html=1;aspect=fixed;" parent="1" vertex="1">
          <mxGeometry x="70" y="160" width="50" height="50" as="geometry" />
        </mxCell>
        <mxCell id="vSH8UtmdNrjKOl-DguEc-20" style="rounded=0;orthogonalLoop=1;jettySize=auto;html=1;entryX=0.5;entryY=1;entryDx=0;entryDy=0;exitX=0.5;exitY=0;exitDx=0;exitDy=0;exitPerimeter=0;edgeStyle=orthogonalEdgeStyle;curved=1;" parent="1" source="vSH8UtmdNrjKOl-DguEc-9" target="vSH8UtmdNrjKOl-DguEc-13" edge="1">
          <mxGeometry relative="1" as="geometry" />
        </mxCell>
        <mxCell id="vSH8UtmdNrjKOl-DguEc-9" value="&lt;font style=&quot;font-size: 7px&quot;&gt;图集规划&lt;/font&gt;" style="ellipse;whiteSpace=wrap;html=1;aspect=fixed;" parent="1" vertex="1">
          <mxGeometry x="-10" y="110" width="50" height="50" as="geometry" />
        </mxCell>
        <mxCell id="vSH8UtmdNrjKOl-DguEc-10" value="&lt;font style=&quot;font-size: 7px ; line-height: 100%&quot;&gt;图集引用&lt;/font&gt;" style="ellipse;whiteSpace=wrap;html=1;aspect=fixed;" parent="1" vertex="1">
          <mxGeometry x="170" y="100" width="60" height="60" as="geometry" />
        </mxCell>
        <mxCell id="vSH8UtmdNrjKOl-DguEc-13" value="&lt;div&gt;&lt;span style=&quot;font-size: 6px&quot;&gt;资源未使用&lt;/span&gt;&lt;/div&gt;" style="ellipse;whiteSpace=wrap;html=1;aspect=fixed;align=center;" parent="1" vertex="1">
          <mxGeometry x="60" y="-10" width="60" height="60" as="geometry" />
        </mxCell>
        <mxCell id="vSH8UtmdNrjKOl-DguEc-15" value="&lt;span style=&quot;font-size: 6px ; line-height: 120%&quot;&gt;内存无法被GC掉&lt;/span&gt;" style="ellipse;whiteSpace=wrap;html=1;aspect=fixed;align=center;" parent="1" vertex="1">
          <mxGeometry x="240" y="50" width="60" height="60" as="geometry" />
        </mxCell>
      </root>
    </mxGraphModel>
  </diagram>
</mxfile>
